<svg xmlns="http://www.w3.org/2000/svg" xmlns:xlink="http://www.w3.org/1999/xlink" width="80" height="80" viewBox="0 0 80 80">
  <defs>
    <clipPath id="clip-_10_print">
      <rect width="80" height="80"/>
    </clipPath>
  </defs>
  <g id="_10_print" data-name="10 print" clip-path="url(#clip-_10_print)">
    <rect width="80" height="80" fill="#fff"/>
    <path id="Path_65" data-name="Path 65" d="M74.408,25.647H21.442V15.762H70.758V25.88a1.8,1.8,0,0,0,3.595,0V13.964a1.8,1.8,0,0,0-1.8-1.8H19.645a1.8,1.8,0,0,0-1.8,1.8V25.647h-.057A6.3,6.3,0,0,0,11.5,31.938V58.6a6.3,6.3,0,0,0,6.291,6.291h8.688V78.37a1.8,1.8,0,0,0,1.8,1.8H64.822a1.8,1.8,0,0,0,1.8-1.8V64.889h7.789A6.3,6.3,0,0,0,80.7,58.6V31.938A6.3,6.3,0,0,0,74.408,25.647ZM63.024,76.572H30.073V55.6H63.024ZM77.1,58.6a2.7,2.7,0,0,1-2.7,2.7H66.619V55.6h2.1a1.8,1.8,0,0,0,0-3.595H23.482a1.8,1.8,0,1,0,0,3.595h3v5.691H17.791a2.7,2.7,0,0,1-2.7-2.7V31.938a2.7,2.7,0,0,1,2.7-2.7H74.408a2.7,2.7,0,0,1,2.7,2.7Zm-11.41-23.29a4.819,4.819,0,1,0,4.82,4.82A4.824,4.824,0,0,0,65.694,35.308Zm0,6.045a1.224,1.224,0,1,1,1.225-1.224A1.225,1.225,0,0,1,65.694,41.353ZM51.6,35.308a4.819,4.819,0,1,0,4.82,4.82A4.824,4.824,0,0,0,51.6,35.308Zm0,6.045a1.224,1.224,0,1,1,1.225-1.224A1.225,1.225,0,0,1,51.6,41.353Z" transform="translate(-6.5 -6.167)"/>
  </g>
</svg>
