<svg xmlns="http://www.w3.org/2000/svg" xmlns:xlink="http://www.w3.org/1999/xlink" width="80" height="80" viewBox="0 0 80 80">
  <defs>
    <clipPath id="clip-_2_Automate_Data_backup">
      <rect width="80" height="80"/>
    </clipPath>
  </defs>
  <g id="_2_Automate_Data_backup" data-name="2 Automate Data backup" clip-path="url(#clip-_2_Automate_Data_backup)">
    <rect width="80" height="80" fill="#fff"/>
    <g id="Group_4" data-name="Group 4" transform="translate(1.054 3.838)">
      <path id="Path_10" data-name="Path 10" d="M14.593,51.675a27.384,27.384,0,0,0,30.594.3,1.388,1.388,0,1,1,1.535,2.313,30.167,30.167,0,0,1-33.709-.329,1.388,1.388,0,1,1,1.58-2.283ZM37.4.043A30.061,30.061,0,0,1,57.144,42.46a1.389,1.389,0,0,1-2.494-1.224,27.288,27.288,0,0,0-17.924-38.5A1.387,1.387,0,1,1,37.4.043ZM23.8,1.2a1.387,1.387,0,0,1-.971,1.706,27.29,27.29,0,0,0-17.8,37.172,1.389,1.389,0,0,1-2.549,1.106A30.063,30.063,0,0,1,22.1.232,1.39,1.39,0,0,1,23.8,1.2Z" transform="translate(6.946 8.901) rotate(-1)"/>
      <path id="Path_11" data-name="Path 11" d="M39.5,5A4.5,4.5,0,1,0,44,9.5,4.5,4.5,0,0,0,39.5,5Zm0,3A1.5,1.5,0,1,1,38,9.5,1.5,1.5,0,0,1,39.5,8Z" transform="translate(-2.297)"/>
      <path id="Path_12" data-name="Path 12" d="M16.5,56A4.5,4.5,0,1,0,21,60.5,4.5,4.5,0,0,0,16.5,56Zm0,3A1.5,1.5,0,1,1,15,60.5,1.5,1.5,0,0,1,16.5,59Z" transform="translate(0 -4.9)"/>
      <path id="Path_13" data-name="Path 13" d="M63.5,56A4.5,4.5,0,1,0,68,60.5,4.5,4.5,0,0,0,63.5,56Zm0,3A1.5,1.5,0,1,1,62,60.5,1.5,1.5,0,0,1,63.5,59Z" transform="translate(-4.865 -4.9)"/>
      <path id="Path_14" data-name="Path 14" d="M1.254.021a1.5,1.5,0,0,1,1.7,1.092l.031.141.753,4.521,4.521-.754a1.5,1.5,0,0,1,1.7,1.092l.031.141a1.5,1.5,0,0,1-1.092,1.7l-.141.031-5.014.836A2.5,2.5,0,0,1,.889,6.922L.856,6.76.021,1.747A1.5,1.5,0,0,1,1.254.021Z" transform="matrix(0.978, -0.208, 0.208, 0.978, 58.871, 43.691)"/>
      <path id="Path_15" data-name="Path 15" d="M1.254.021a1.5,1.5,0,0,1,1.7,1.092l.031.141.753,4.521,4.521-.754a1.5,1.5,0,0,1,1.7,1.092l.031.141a1.5,1.5,0,0,1-1.092,1.7l-.141.031-5.014.836A2.5,2.5,0,0,1,.889,6.922L.856,6.76.021,1.747A1.5,1.5,0,0,1,1.254.021Z" transform="translate(29.558 16.671) rotate(-152)"/>
      <path id="Path_16" data-name="Path 16" d="M1.254,8.829a1.5,1.5,0,0,0,1.7-1.092L2.98,7.6l.753-4.521,4.521.754a1.5,1.5,0,0,0,1.7-1.092L9.98,2.6A1.5,1.5,0,0,0,8.888.9L8.747.87,3.733.034A2.5,2.5,0,0,0,.889,1.928l-.032.161L.021,7.1A1.5,1.5,0,0,0,1.254,8.829Z" transform="matrix(0.914, -0.407, 0.407, 0.914, 18.11, 59.508)"/>
      <g id="Group_3" data-name="Group 3" transform="translate(17.765 17.315)">
        <path id="Path_17" data-name="Path 17" d="M20,13.75A6.25,6.25,0,1,0,26.3,20,6.282,6.282,0,0,0,20,13.75Zm0,9.375A3.125,3.125,0,1,1,23.15,20,3.141,3.141,0,0,1,20,23.125Z" transform="translate(0)"/>
        <path id="Path_18" data-name="Path 18" d="M39.383,24.659l-4.078-3.1a14.615,14.615,0,0,0,0-3.118l4.078-3.1a1.554,1.554,0,0,0,.4-2.034L35.832,6.668a1.581,1.581,0,0,0-1.933-.66L29.061,7.9a15.424,15.424,0,0,0-2.827-1.589l-.726-4.971A1.571,1.571,0,0,0,23.949,0h-7.9a1.571,1.571,0,0,0-1.558,1.338L13.766,6.31A15.429,15.429,0,0,0,10.939,7.9L6.1,6.008a1.581,1.581,0,0,0-1.933.66L.219,13.306a1.555,1.555,0,0,0,.4,2.034l4.078,3.1a14.614,14.614,0,0,0,0,3.118l-4.078,3.1a1.554,1.554,0,0,0-.4,2.034l3.949,6.639a1.581,1.581,0,0,0,1.933.66L10.939,32.1a15.427,15.427,0,0,0,2.827,1.589l.726,4.971A1.571,1.571,0,0,0,16.051,40h7.9a1.571,1.571,0,0,0,1.559-1.338l.726-4.971A15.422,15.422,0,0,0,29.061,32.1L33.9,33.992a1.581,1.581,0,0,0,1.933-.66l3.949-6.639A1.555,1.555,0,0,0,39.383,24.659ZM33.8,30.6,29.39,28.871a1.585,1.585,0,0,0-1.569.24,12.294,12.294,0,0,1-3.552,1.993,1.565,1.565,0,0,0-1.021,1.245l-.661,4.525H17.414l-.661-4.525a1.565,1.565,0,0,0-1.021-1.245,12.3,12.3,0,0,1-3.552-1.993,1.585,1.585,0,0,0-1.569-.24L6.2,30.6,3.64,26.3l3.7-2.811a1.556,1.556,0,0,0,.594-1.506,11.553,11.553,0,0,1,0-3.961,1.556,1.556,0,0,0-.594-1.506L3.64,13.7,6.2,9.4l4.413,1.724a1.585,1.585,0,0,0,1.569-.24,12.3,12.3,0,0,1,3.552-1.993A1.565,1.565,0,0,0,16.753,7.65l.661-4.525h5.172l.661,4.525a1.565,1.565,0,0,0,1.021,1.245,12.3,12.3,0,0,1,3.552,1.993,1.585,1.585,0,0,0,1.569.24L33.8,9.4l2.557,4.3-3.7,2.811a1.556,1.556,0,0,0-.594,1.506,11.553,11.553,0,0,1,0,3.961,1.556,1.556,0,0,0,.594,1.506l3.7,2.811Z" transform="translate(0)"/>
      </g>
    </g>
  </g>
</svg>
