<svg xmlns="http://www.w3.org/2000/svg" xmlns:xlink="http://www.w3.org/1999/xlink" width="80" height="80" viewBox="0 0 80 80">
  <defs>
    <clipPath id="clip-_3_Analysis">
      <rect width="80" height="80"/>
    </clipPath>
  </defs>
  <g id="_3_Analysis" data-name="3 Analysis" clip-path="url(#clip-_3_Analysis)">
    <rect width="80" height="80" fill="#fff"/>
    <g id="Group_2" data-name="Group 2" transform="translate(-85.2 -19.25)">
      <path id="Path_9" data-name="Path 9" d="M105.166,86.453h-4.6A1.368,1.368,0,0,1,99.2,85.086V28.618a1.368,1.368,0,0,1,1.368-1.368h43.673a1.368,1.368,0,0,1,1.368,1.368v3.43h4.6a1.368,1.368,0,0,1,1.368,1.368V89.882a1.368,1.368,0,0,1-1.368,1.368H106.534a1.368,1.368,0,0,1-1.368-1.368Zm7.541-5.682a1.368,1.368,0,0,1,0-2.736H144.18a1.368,1.368,0,1,1,0,2.736Zm0-4.576a1.368,1.368,0,0,1,0-2.736H144.18a1.368,1.368,0,1,1,0,2.736Zm0-4.576a1.368,1.368,0,0,1,0-2.736H144.18a1.368,1.368,0,1,1,0,2.736Zm15.511-7.312a1.368,1.368,0,0,1,0,2.736H112.56a1.368,1.368,0,1,1,0-2.736Zm15.511-5.658a1.368,1.368,0,1,1,0,2.736h-9.837a1.368,1.368,0,0,1,0-2.736Zm0-3.761a1.368,1.368,0,1,1,0,2.736h-9.837a1.368,1.368,0,0,1,0-2.736Zm0-3.761a1.368,1.368,0,1,1,0,2.736h-9.837a1.368,1.368,0,0,1,0-2.736Zm0-3.757a1.362,1.362,0,0,1,0,2.724l-9.837,0a1.362,1.362,0,0,1,0-2.724Zm-9.865-1.029a1.368,1.368,0,1,1,0-2.736h6.353a1.368,1.368,0,0,1,0,2.736Zm-12.319.965h-4.288c-.206.172-.4.353-.594.542-.149.149-.291.3-.429.461h5.311v-1Zm-2.031-1.369h2.031v-.573A8.783,8.783,0,0,0,119.515,45.937Zm2.031,3.741h-6.288a8.875,8.875,0,0,0-.5,1.005h6.787Zm0,2.374h-7.233q-.08.334-.133.679h7.366Zm-4.1,3.414a5.633,5.633,0,1,0,6.833-6.833V54.1a1.368,1.368,0,0,1-1.368,1.368h-5.465Zm6.833-9.625a8.368,8.368,0,1,1-9.625,9.625h-1.95a1.368,1.368,0,0,1-1.368-1.368,11.574,11.574,0,0,1,11.574-11.574,1.368,1.368,0,0,1,1.368,1.368Zm-7.914-11.058-.459,7.939a1.365,1.365,0,0,1-1.111,1.266l-6.9,1.3V88.514h40.938V34.783Zm-6.48,7.356,3.359-.635.224-3.87Zm32.987-10.092V29.986H101.936V83.718h3.23V44.162a1.375,1.375,0,0,1,.3-.85l8.5-10.685a1.365,1.365,0,0,1,1.117-.579Z" transform="translate(0 0)"/>
    </g>
  </g>
</svg>
