<svg xmlns="http://www.w3.org/2000/svg" xmlns:xlink="http://www.w3.org/1999/xlink" width="80" height="80" viewBox="0 0 80 80">
  <defs>
    <clipPath id="clip-_4_data_exchange">
      <rect width="80" height="80"/>
    </clipPath>
  </defs>
  <g id="_4_data_exchange" data-name="4 data exchange" clip-path="url(#clip-_4_data_exchange)">
    <rect width="80" height="80" fill="#fff"/>
    <g id="Group_20" data-name="Group 20" transform="translate(4 4)">
      <g id="Group_6" data-name="Group 6" transform="translate(1 1)">
        <path id="Path_41" data-name="Path 41" d="M3.188,33.813H36.547a2.194,2.194,0,0,0,2.188-2.188V8.438A2.194,2.194,0,0,0,36.547,6.25H16.531V2.094A1.033,1.033,0,0,0,15.437,1H2.094A1.033,1.033,0,0,0,1,2.094V31.625A2.194,2.194,0,0,0,3.188,33.813Zm33.359-2.188H3.188V8.438H36.547ZM3.188,3.188H14.344V6.25H3.188Z" transform="translate(-1 -1)" stroke="#000" stroke-width="0.5"/>
      </g>
      <g id="Group_7" data-name="Group 7" transform="translate(33.266 38.188)">
        <path id="Path_42" data-name="Path 42" d="M66.047,40.25H46.031V36.094A1.033,1.033,0,0,0,44.938,35H31.594A1.033,1.033,0,0,0,30.5,36.094V65.625a2.194,2.194,0,0,0,2.187,2.188H66.047a2.194,2.194,0,0,0,2.188-2.187V42.438A2.194,2.194,0,0,0,66.047,40.25ZM32.688,37.188H43.844V40.25H32.688Zm0,28.437V42.438H66.047V65.625Z" transform="translate(-30.5 -35)" stroke="#000" stroke-width="0.5"/>
      </g>
      <g id="Group_8" data-name="Group 8" transform="translate(46.5 11.938)">
        <path id="Path_43" data-name="Path 43" d="M49.819,26.641a1.083,1.083,0,1,0-1.531,1.531l2.953,2.953c.109.109.219.219.328.219a.93.93,0,0,0,.875,0c.109-.109.219-.109.328-.219l2.953-2.953a1.083,1.083,0,1,0-1.531-1.531L53.1,27.734V15.375A4.388,4.388,0,0,0,48.725,11H43.694A1.033,1.033,0,0,0,42.6,12.094a1.033,1.033,0,0,0,1.094,1.094h5.031a2.194,2.194,0,0,1,2.188,2.188V27.734Z" transform="translate(-42.6 -11)" stroke="#000" stroke-width="0.5"/>
      </g>
      <g id="Group_9" data-name="Group 9" transform="translate(12.047 39.637)">
        <path id="Path_44" data-name="Path 44" d="M17.334,41.11a1.182,1.182,0,0,0,.766.328.993.993,0,0,0,.766-.328,1.057,1.057,0,0,0,0-1.531l-2.953-2.953c-.109-.109-.219-.219-.328-.219a1.2,1.2,0,0,0-.875,0c-.109.109-.219.109-.328.219l-2.953,2.953a1.083,1.083,0,0,0,1.531,1.531l1.094-1.094V52.376a4.388,4.388,0,0,0,4.375,4.375h5.031a1.094,1.094,0,0,0,0-2.187H18.428a2.194,2.194,0,0,1-2.187-2.187V40.016Z" transform="translate(-11.1 -36.325)" stroke="#000" stroke-width="0.5"/>
      </g>
      <g id="Group_10" data-name="Group 10" transform="translate(8.547 25.063)">
        <path id="Path_45" data-name="Path 45" d="M15.556,23H8.994a1.094,1.094,0,0,0,0,2.188h6.562a1.033,1.033,0,0,0,1.094-1.094A1.176,1.176,0,0,0,15.556,23Z" transform="translate(-7.9 -23)" stroke="#000" stroke-width="0.5"/>
      </g>
      <g id="Group_11" data-name="Group 11" transform="translate(8.547 19.594)">
        <path id="Path_46" data-name="Path 46" d="M15.556,18H8.994a1.094,1.094,0,0,0,0,2.188h6.562a1.033,1.033,0,0,0,1.094-1.094A1.176,1.176,0,0,0,15.556,18Z" transform="translate(-7.9 -18)" stroke="#000" stroke-width="0.5"/>
      </g>
      <g id="Group_12" data-name="Group 12" transform="translate(13.688 12.813)">
        <path id="Path_47" data-name="Path 47" d="M12.6,12.894a1.033,1.033,0,0,0,1.094,1.094h2.188a1.094,1.094,0,0,0,0-2.188H13.694A1.033,1.033,0,0,0,12.6,12.894Z" transform="translate(-12.6 -11.8)" stroke="#000" stroke-width="0.5"/>
      </g>
      <g id="Group_13" data-name="Group 13" transform="translate(20.25 12.813)">
        <path id="Path_48" data-name="Path 48" d="M19.694,13.988h2.188a1.094,1.094,0,0,0,0-2.188H19.694A1.033,1.033,0,0,0,18.6,12.894,1.1,1.1,0,0,0,19.694,13.988Z" transform="translate(-18.6 -11.8)" stroke="#000" stroke-width="0.5"/>
      </g>
      <g id="Group_14" data-name="Group 14" transform="translate(26.813 12.813)">
        <path id="Path_49" data-name="Path 49" d="M25.694,13.988h2.188a1.094,1.094,0,0,0,0-2.188H25.694A1.033,1.033,0,0,0,24.6,12.894,1.1,1.1,0,0,0,25.694,13.988Z" transform="translate(-24.6 -11.8)" stroke="#000" stroke-width="0.5"/>
      </g>
      <g id="Group_15" data-name="Group 15" transform="translate(40.813 62.25)">
        <path id="Path_50" data-name="Path 50" d="M45.056,57H38.494a1.094,1.094,0,0,0,0,2.188h6.563a1.033,1.033,0,0,0,1.094-1.094A1.1,1.1,0,0,0,45.056,57Z" transform="translate(-37.4 -57)" stroke="#000" stroke-width="0.5"/>
      </g>
      <g id="Group_16" data-name="Group 16" transform="translate(40.813 56.781)">
        <path id="Path_51" data-name="Path 51" d="M45.056,52H38.494a1.094,1.094,0,0,0,0,2.188h6.563a1.033,1.033,0,0,0,1.094-1.094A1.1,1.1,0,0,0,45.056,52Z" transform="translate(-37.4 -52)" stroke="#000" stroke-width="0.5"/>
      </g>
      <g id="Group_17" data-name="Group 17" transform="translate(45.953 50)">
        <path id="Path_52" data-name="Path 52" d="M45.381,45.8H43.194a1.094,1.094,0,0,0,0,2.188h2.188a1.094,1.094,0,0,0,0-2.187Z" transform="translate(-42.1 -45.8)" stroke="#000" stroke-width="0.5"/>
      </g>
      <g id="Group_18" data-name="Group 18" transform="translate(52.516 50)">
        <path id="Path_53" data-name="Path 53" d="M51.381,45.8H49.194a1.094,1.094,0,0,0,0,2.188h2.188a1.094,1.094,0,0,0,0-2.187Z" transform="translate(-48.1 -45.8)" stroke="#000" stroke-width="0.5"/>
      </g>
      <g id="Group_19" data-name="Group 19" transform="translate(59.078 50)">
        <path id="Path_54" data-name="Path 54" d="M57.381,45.8H55.194a1.094,1.094,0,0,0,0,2.188h2.188a1.094,1.094,0,0,0,0-2.187Z" transform="translate(-54.1 -45.8)" stroke="#000" stroke-width="0.5"/>
      </g>
    </g>
  </g>
</svg>
