<svg xmlns="http://www.w3.org/2000/svg" xmlns:xlink="http://www.w3.org/1999/xlink" width="80" height="80" viewBox="0 0 80 80">
  <defs>
    <clipPath id="clip-_5_Performance">
      <rect width="80" height="80"/>
    </clipPath>
  </defs>
  <g id="_5_Performance" data-name="5 Performance" clip-path="url(#clip-_5_Performance)">
    <rect width="80" height="80" fill="#fff"/>
    <g id="Group_31" data-name="Group 31" transform="translate(-1.238 2.525)">
      <path id="Path_64" data-name="Path 64" d="M76.279,63.3H66.961V26.7h3.108a.959.959,0,0,0,.748-1.562L62.68,15.014a.564.564,0,0,1-.146-.146.766.766,0,0,0-.079-.04.927.927,0,0,0-.173-.09,1.136,1.136,0,0,0-.169-.052.959.959,0,0,0-.192-.015.975.975,0,0,0-.182.015,1.048,1.048,0,0,0-.167.052.871.871,0,0,0-.173.09.609.609,0,0,0-.079.04c-.029.021-.042.054-.067.079s-.058.038-.079.067L53.036,25.136a.959.959,0,0,0,.748,1.562H56.9V63.3H46.683V36.626h3.11a.959.959,0,0,0,.748-1.56L42.4,24.942c-.021-.029-.054-.04-.079-.065a.88.88,0,0,0-.067-.081c-.023-.019-.052-.023-.077-.04a1.057,1.057,0,0,0-.173-.09,1.136,1.136,0,0,0-.169-.052,1.09,1.09,0,0,0-.365,0,1.136,1.136,0,0,0-.169.052,1.058,1.058,0,0,0-.173.09c-.025.017-.054.021-.079.04s-.04.056-.065.081-.058.038-.081.065L32.77,35.066a.959.959,0,0,0,.748,1.56h3.114V63.3H26.406V46.542h3.11a.959.959,0,0,0,.746-1.56L22.125,34.86a.858.858,0,0,0-.075-.067.877.877,0,0,0-.067-.081c-.025-.019-.054-.023-.081-.04a.943.943,0,0,0-.169-.088,1.092,1.092,0,0,0-.171-.052,1.079,1.079,0,0,0-.363,0,.919.919,0,0,0-.171.052,1.031,1.031,0,0,0-.171.088c-.025.017-.056.021-.079.04a.878.878,0,0,0-.067.081.858.858,0,0,0-.079.067L12.493,44.982a.959.959,0,0,0,.746,1.56h3.108V63.3H7.157V10.434a.959.959,0,0,0-1.919,0V64.256a.959.959,0,0,0,.959.959H76.279a.959.959,0,1,0,0-1.919ZM57.858,24.779H55.8l6.14-7.633,6.14,7.633H66a.959.959,0,0,0-.959.959V63.3H58.824V25.739a.959.959,0,0,0-.959-.959ZM37.592,34.7h-2.07l6.14-7.631L47.8,34.7H45.724a.959.959,0,0,0-.959.959v27.63H38.552V35.66A.959.959,0,0,0,37.592,34.7ZM17.307,44.623H15.242l6.14-7.631,6.14,7.631H25.447a.959.959,0,0,0-.959.959V63.3H18.266V45.582A.959.959,0,0,0,17.307,44.623Z" transform="translate(0 0)" stroke="#000" stroke-width="0.5"/>
    </g>
  </g>
</svg>
