<svg xmlns="http://www.w3.org/2000/svg" xmlns:xlink="http://www.w3.org/1999/xlink" width="80" height="80" viewBox="0 0 80 80">
  <defs>
    <clipPath id="clip-_6_customize_cloud">
      <rect width="80" height="80"/>
    </clipPath>
  </defs>
  <g id="_6_customize_cloud" data-name="6 customize cloud" clip-path="url(#clip-_6_customize_cloud)">
    <rect width="80" height="80" fill="#fff"/>
    <g id="Group_32" data-name="Group 32" transform="translate(-3755.95 -1456)">
      <path id="Path_20" data-name="Path 20" d="M56.808,18.306c-.163,0-.321,0-.479.007a17.368,17.368,0,0,0-33.89.973,15.14,15.14,0,1,0-5.347,29.3h7.333a1.246,1.246,0,1,0,0-2.491H17.092a12.651,12.651,0,1,1,5.773-23.9,1.248,1.248,0,0,0,1.817-.993,14.874,14.874,0,0,1,29.436-1.353,1.253,1.253,0,0,0,1.362,1.012,11.825,11.825,0,0,1,1.328-.073,12.651,12.651,0,1,1,0,25.3H49.993a1.246,1.246,0,0,0,0,2.491h6.815a15.142,15.142,0,1,0,0-30.285Z" transform="translate(3759 1463.789)" stroke="#000" stroke-width="0.5"/>
      <path id="Path_21" data-name="Path 21" d="M35.218,25.042h-.81l.574-.574a2.268,2.268,0,0,0,0-3.2L32.107,18.4a2.315,2.315,0,0,0-3.2,0l-.572.572v-.81a2.264,2.264,0,0,0-2.262-2.26H22.011a2.264,2.264,0,0,0-2.262,2.26v.81l-.572-.572a2.311,2.311,0,0,0-3.2,0L13.1,21.272a2.269,2.269,0,0,0,0,3.2l.572.572h-.81a2.264,2.264,0,0,0-2.26,2.262v4.063a2.264,2.264,0,0,0,2.26,2.262h.81L13.1,34.2a2.268,2.268,0,0,0,0,3.2l2.873,2.873a2.311,2.311,0,0,0,3.2,0l.572-.572v.81a2.264,2.264,0,0,0,2.262,2.26h4.063a2.264,2.264,0,0,0,2.262-2.26V39.7l.572.572a2.315,2.315,0,0,0,3.2,0L34.98,37.4a2.269,2.269,0,0,0,0-3.2l-.572-.572h.81a2.264,2.264,0,0,0,2.26-2.262V27.3A2.264,2.264,0,0,0,35.218,25.042Zm-.231,6.1H32.666a1.246,1.246,0,0,0-1.173.827,7.739,7.739,0,0,1-.324.774,1.243,1.243,0,0,0,.243,1.418L33.055,35.8l-2.547,2.547-1.644-1.642a1.245,1.245,0,0,0-1.426-.238,7.586,7.586,0,0,1-.766.319,1.246,1.246,0,0,0-.827,1.173v2.321H22.24V37.96a1.246,1.246,0,0,0-.827-1.173,7.585,7.585,0,0,1-.766-.319,1.242,1.242,0,0,0-1.426.238l-1.644,1.642L15.029,35.8l1.642-1.645a1.243,1.243,0,0,0,.243-1.418,7.74,7.74,0,0,1-.324-.774,1.246,1.246,0,0,0-1.173-.827H13.1V27.534h2.321a1.246,1.246,0,0,0,1.173-.827,7.739,7.739,0,0,1,.324-.774,1.243,1.243,0,0,0-.243-1.418L15.029,22.87l2.547-2.547,1.642,1.642a1.242,1.242,0,0,0,1.416.243c.253-.119.511-.229.778-.324a1.246,1.246,0,0,0,.827-1.173V18.392h3.605v2.321a1.246,1.246,0,0,0,.827,1.173,7.738,7.738,0,0,1,.774.324,1.247,1.247,0,0,0,1.418-.243l1.644-1.642,2.547,2.547-1.642,1.645a1.243,1.243,0,0,0-.243,1.418,7.738,7.738,0,0,1,.324.774,1.246,1.246,0,0,0,1.173.827h2.321Z" transform="translate(3771.907 1479.728)" stroke="#000" stroke-width="0.5"/>
      <path id="Path_22" data-name="Path 22" d="M19.177,19.163a5.308,5.308,0,1,0,5.308,5.308,5.308,5.308,0,0,0-5.308-5.308Zm0,8.125a2.817,2.817,0,1,1,2.817-2.817,2.817,2.817,0,0,1-2.817,2.817Z" transform="translate(3776.773 1484.593)" stroke="#000" stroke-width="0.5"/>
    </g>
  </g>
</svg>
