<svg xmlns="http://www.w3.org/2000/svg" xmlns:xlink="http://www.w3.org/1999/xlink" width="80" height="80" viewBox="0 0 80 80">
  <defs>
    <clipPath id="clip-_7_dashboard">
      <rect width="80" height="80"/>
    </clipPath>
  </defs>
  <g id="_7_dashboard" data-name="7 dashboard" clip-path="url(#clip-_7_dashboard)">
    <rect width="80" height="80" fill="#fff"/>
    <g id="Group_34" data-name="Group 34" transform="translate(-3948 -1681)">
      <path id="Path_35" data-name="Path 35" d="M70.983,9.92H10.567A6.575,6.575,0,0,0,4,16.487V61.353a6.575,6.575,0,0,0,6.567,6.567H70.983a6.575,6.575,0,0,0,6.567-6.567V16.487A6.575,6.575,0,0,0,70.983,9.92ZM10.567,12.547H52.952l-6.24,9.492A4.6,4.6,0,0,1,42.943,24H6.627V16.487a3.945,3.945,0,0,1,3.94-3.94ZM74.924,61.353a3.944,3.944,0,0,1-3.94,3.94H10.567a3.945,3.945,0,0,1-3.94-3.94V26.627H42.943a7.249,7.249,0,0,0,5.944-3.114L56.1,12.547H70.983a3.945,3.945,0,0,1,3.94,3.94Z" transform="translate(3947 1682.08)"/>
      <path id="Path_36" data-name="Path 36" d="M25.537,24.909A16.372,16.372,0,0,0,9.184,41.262C9.155,55.814,27.053,63.054,37.124,52.788,47.311,42.69,40.039,24.874,25.537,24.909ZM39.264,41.262a13.663,13.663,0,0,1-3.141,8.729L26.85,40.718V27.6a13.743,13.743,0,0,1,12.413,13.66ZM24.224,27.6V39.949H11.877A13.746,13.746,0,0,1,24.224,27.6ZM11.877,42.575H24.993l9.273,9.273C26.013,58.865,12.773,53.364,11.877,42.575Z" transform="translate(3948.625 1686.778)"/>
      <path id="Path_37" data-name="Path 37" d="M59.628,26.6H37.969a1.314,1.314,0,1,0,0,2.627h21.66a1.314,1.314,0,1,0,0-2.627Z" transform="translate(3957.234 1687.307)"/>
      <path id="Path_38" data-name="Path 38" d="M59.628,33.106H37.969a1.314,1.314,0,1,0,0,2.627h21.66a1.314,1.314,0,1,0,0-2.627Z" transform="translate(3957.234 1689.347)"/>
      <path id="Path_39" data-name="Path 39" d="M59.628,39.614H37.969a1.314,1.314,0,1,0,0,2.627h21.66a1.314,1.314,0,1,0,0-2.627Z" transform="translate(3957.234 1691.386)"/>
      <path id="Path_40" data-name="Path 40" d="M59.628,46.122H37.969a1.314,1.314,0,1,0,0,2.627h21.66a1.314,1.314,0,1,0,0-2.627Z" transform="translate(3957.234 1693.426)"/>
    </g>
  </g>
</svg>
