<svg xmlns="http://www.w3.org/2000/svg" xmlns:xlink="http://www.w3.org/1999/xlink" width="80" height="80" viewBox="0 0 80 80">
  <defs>
    <clipPath id="clip-_8_Cost_effective_solution">
      <rect width="80" height="80"/>
    </clipPath>
  </defs>
  <g id="_8_Cost_effective_solution" data-name="8 Cost effective solution" clip-path="url(#clip-_8_Cost_effective_solution)">
    <rect width="80" height="80" fill="#fff"/>
    <g id="Group_35" data-name="Group 35" transform="translate(-21.653 -8.582)">
      <g id="Group_22" data-name="Group 22" transform="translate(41.051 19.014)">
        <path id="Path_56" data-name="Path 56" d="M258.974,136.26a3.962,3.962,0,0,0-2.157,3.529v.9a3.964,3.964,0,0,0,3.963,3.965h.354v.4a5.357,5.357,0,0,0,5.356,5.359h4.593a5.361,5.361,0,0,0,5.359-5.359v-.4h.351a3.968,3.968,0,0,0,3.965-3.965v-.9a3.967,3.967,0,0,0-1.162-2.8,3.9,3.9,0,0,0-.99-.724c.007-.512.024-1.245.059-2.056v-.052a9.545,9.545,0,0,1,3.362-7.268A20.6,20.6,0,1,0,248.184,111.1a20.28,20.28,0,0,0,7.412,15.737,9.611,9.611,0,0,1,3.378,7.315Zm4.517,8.4h10.592v.4a3,3,0,0,1-3,3H266.49a3,3,0,0,1-3-3Zm-2.711-6.476h16.013a1.61,1.61,0,0,1,1.608,1.608v.9a1.61,1.61,0,0,1-1.608,1.608H260.78a1.606,1.606,0,0,1-1.605-1.608v-.9a1.606,1.606,0,0,1,1.605-1.608Zm15.475-2.358H261.332v-1.669h0a11.966,11.966,0,0,0-4.215-9.117.107.107,0,0,0-.017-.014,17.929,17.929,0,0,1-6.559-13.921,18.245,18.245,0,1,1,29.964,13.983s0,0-.007,0a11.906,11.906,0,0,0-4.192,9.053C276.281,134.763,276.265,135.348,276.255,135.824Z" transform="translate(-248.184 -90.5)" fill-rule="evenodd"/>
      </g>
      <g id="Group_23" data-name="Group 23" transform="translate(82.494 24.077) rotate(-30)">
        <path id="Path_57" data-name="Path 57" d="M1.178,2.357H9.812A1.178,1.178,0,1,0,9.812,0H1.178a1.178,1.178,0,1,0,0,2.357Z" transform="translate(0 0)" fill-rule="evenodd"/>
      </g>
      <g id="Group_24" data-name="Group 24" transform="translate(86.663 37.36)">
        <path id="Path_58" data-name="Path 58" d="M322.012,69.6h8.633a1.178,1.178,0,1,0,0-2.357h-8.633a1.178,1.178,0,0,0,0,2.357Z" transform="translate(-320.834 -67.246)" fill-rule="evenodd"/>
      </g>
      <g id="Group_25" data-name="Group 25" transform="translate(83.673 50.957) rotate(30)">
        <path id="Path_59" data-name="Path 59" d="M1.178,2.357H9.812A1.178,1.178,0,1,0,9.812,0H1.178a1.178,1.178,0,1,0,0,2.357Z" transform="translate(0 0)" fill-rule="evenodd"/>
      </g>
      <g id="Group_26" data-name="Group 26" transform="translate(39.634 26.119) rotate(-150)">
        <path id="Path_60" data-name="Path 60" d="M1.178,2.357H9.812A1.178,1.178,0,1,0,9.812,0H1.178a1.178,1.178,0,1,0,0,2.357Z" transform="translate(0 0)" fill-rule="evenodd"/>
      </g>
      <g id="Group_27" data-name="Group 27" transform="translate(36.643 39.717) rotate(180)">
        <path id="Path_61" data-name="Path 61" d="M1.178,2.357H9.811A1.178,1.178,0,1,0,9.811,0H1.178a1.178,1.178,0,0,0,0,2.357Z" transform="translate(0 0)" fill-rule="evenodd"/>
      </g>
      <g id="Group_28" data-name="Group 28" transform="translate(40.813 52.998) rotate(150)">
        <path id="Path_62" data-name="Path 62" d="M1.178,2.357H9.812A1.178,1.178,0,1,0,9.812,0H1.178a1.178,1.178,0,1,0,0,2.357Z" transform="translate(0 0)" fill-rule="evenodd"/>
      </g>
      <g id="Group_29" data-name="Group 29" transform="translate(55.252 27.315)">
        <path id="Path_63" data-name="Path 63" d="M259.461,95.8a6.4,6.4,0,0,0,0,12.6v8.025a4.046,4.046,0,0,1-2.9-3.878,1.179,1.179,0,1,0-2.358,0,6.407,6.407,0,0,0,5.253,6.3v.6a1.179,1.179,0,1,0,2.358,0v-.608a6.4,6.4,0,0,0,0-12.575v-8.02a4.055,4.055,0,0,1,2.836,3.862,1.179,1.179,0,1,0,2.357,0,6.407,6.407,0,0,0-5.194-6.288V95.2a1.179,1.179,0,1,0-2.358,0Zm2.358,12.886V116.4a4.045,4.045,0,0,0,0-7.721Zm-2.358-10.465a4.045,4.045,0,0,0,0,7.756Z" transform="translate(-254.208 -94.021)" fill-rule="evenodd"/>
      </g>
    </g>
  </g>
</svg>
