<svg xmlns="http://www.w3.org/2000/svg" xmlns:xlink="http://www.w3.org/1999/xlink" width="80" height="80" viewBox="0 0 80 80">
  <defs>
    <clipPath id="clip-_9_Support">
      <rect width="80" height="80"/>
    </clipPath>
  </defs>
  <g id="_9_Support" data-name="9 Support" clip-path="url(#clip-_9_Support)">
    <rect width="80" height="80" fill="#fff"/>
    <g id="Group_5" data-name="Group 5" transform="translate(5.9 7.674)">
      <path id="Path_23" data-name="Path 23" d="M60.135,25.726H57.274a23.485,23.485,0,0,0-46.971,0H7.442A6.35,6.35,0,0,0,1.1,32.068v9.653a6.348,6.348,0,0,0,6.342,6.34H10.67a3.582,3.582,0,0,0,3.578-3.578V25.816a19.543,19.543,0,0,1,39.086,0V46.142a7.591,7.591,0,0,1-7.582,7.582h-4.62a6.616,6.616,0,0,0-6.294-4.653h-2.1a6.628,6.628,0,0,0,0,13.255h2.1a6.613,6.613,0,0,0,6.294-4.653h4.62a11.524,11.524,0,0,0,11.336-9.609h3.049a6.348,6.348,0,0,0,6.342-6.34V32.07A6.354,6.354,0,0,0,60.135,25.726ZM10.3,44.113H7.442a2.4,2.4,0,0,1-2.394-2.391V32.068a2.4,2.4,0,0,1,2.394-2.394H10.3V44.113ZM34.837,58.377h-2.1a2.679,2.679,0,0,1,0-5.357h2.1a2.679,2.679,0,1,1,0,5.357ZM62.528,41.721a2.4,2.4,0,0,1-2.393,2.391H57.278V29.675h2.856a2.4,2.4,0,0,1,2.393,2.394Z" transform="translate(0 0)"/>
    </g>
  </g>
</svg>
