<svg xmlns="http://www.w3.org/2000/svg" xmlns:xlink="http://www.w3.org/1999/xlink" width="80" height="80" viewBox="0 0 80 80">
  <defs>
    <clipPath id="clip-Solo_Supplier">
      <rect width="80" height="80"/>
    </clipPath>
  </defs>
  <g id="Solo_Supplier" data-name="Solo Supplier" clip-path="url(#clip-Solo_Supplier)">
    <g id="Group_37" data-name="Group 37">
      <g id="Group_36" data-name="Group 36">
        <path id="Path_68" data-name="Path 68" d="M31.947,40A1,1,0,0,0,31,41.053l.977,18.555L30,61.586l-1.978-1.979L29,41.052A1,1,0,0,0,28.053,40,.982.982,0,0,0,27,40.946l-1,19a1,1,0,0,0,.292.76l3,3a1,1,0,0,0,1.414,0l3-3a1,1,0,0,0,.292-.76l-1-19A1,1,0,0,0,31.947,40Z" transform="translate(0 -2)" stroke="#000001" stroke-width="0.5"/>
        <path id="Path_69" data-name="Path 69" d="M41,62H12V45.747a4.514,4.514,0,0,1,2.429-3.7L26.268,36.9a1,1,0,0,0,.6-.917v-3.5a1.036,1.036,0,0,0-.571-.9c-.018-.009-1.813-.958-2.97-5.118a1.021,1.021,0,0,0-.229-.41A5.339,5.339,0,0,1,21.951,23.8a2.866,2.866,0,0,1,.089-1.622,1,1,0,0,0,.6-1.085c-.188-1.136-.416-4.468.76-6.231C24.9,12.6,28.256,12,30,12s5.1.6,6.6,2.859c1.171,1.756.945,5.094.76,6.232a1,1,0,0,0,.6,1.084A2.87,2.87,0,0,1,38.05,23.8,5.348,5.348,0,0,1,36.9,26.044a.989.989,0,0,0-.23.412c-1.156,4.158-2.95,5.108-2.948,5.108a1,1,0,0,0-.593.913v3.5a1,1,0,0,0,.6.917l11.838,5.148a3.289,3.289,0,0,1,.791.5A1,1,0,1,0,47.642,41a5.3,5.3,0,0,0-1.271-.793L35.134,35.32v-2.3c.842-.635,2.364-2.218,3.407-5.817a7.275,7.275,0,0,0,1.473-3.013,4.218,4.218,0,0,0-.594-3.407c.148-1.406.322-4.83-1.15-7.037C36.421,10.982,32.66,10,30,10s-6.421.982-8.267,3.75c-1.472,2.207-1.3,5.631-1.15,7.037a4.223,4.223,0,0,0-.595,3.4,7.27,7.27,0,0,0,1.474,3.017c1.043,3.6,2.565,5.183,3.407,5.817v2.3L13.632,40.209A6.458,6.458,0,0,0,10,45.747V63a1,1,0,0,0,1,1H41a1,1,0,0,0,0-2Z" stroke="#000001" stroke-width="0.5"/>
        <path id="Path_71" data-name="Path 71" d="M69.172,49.2l-10.363-1.81-4.925-9.3a1.042,1.042,0,0,0-1.768,0l-4.925,9.3L36.828,49.2a1,1,0,0,0-.547,1.681l7.32,7.558L42.121,68.86A1,1,0,0,0,43.55,69.9L53,65.271,62.449,69.9a1,1,0,0,0,1.43-1.039L62.4,58.443l7.32-7.558a1,1,0,0,0-.547-1.681Zm-8.551,8.2a1,1,0,0,0-.271.836l1.283,9.032L53.44,63.258a1.012,1.012,0,0,0-.439-.1,1,1,0,0,0-.439.1l-8.193,4.013,1.283-9.032a1,1,0,0,0-.271-.836l-6.348-6.554,8.986-1.569a1,1,0,0,0,.712-.518L53,40.7l4.271,8.062a1,1,0,0,0,.712.518l8.986,1.569Z" stroke="#000001" stroke-width="0.5"/>
        <path id="Path_72" data-name="Path 72" d="M69.172,25.827l-4.94-.863-2.348-4.432a1.042,1.042,0,0,0-1.768,0l-2.348,4.432-4.94.863a1,1,0,0,0-.547,1.681l3.49,3.6-.705,4.967a1,1,0,0,0,1.43,1.039L61,34.909l4.5,2.207a1,1,0,0,0,1.43-1.038l-.705-4.967,3.49-3.6a1,1,0,0,0-.546-1.681Zm-4.721,4.244a1,1,0,0,0-.271.836l.509,3.582L61.441,32.9a1.02,1.02,0,0,0-.44-.1,1,1,0,0,0-.44.1l-3.248,1.592.509-3.582a1,1,0,0,0-.271-.836l-2.518-2.6,3.563-.623a1,1,0,0,0,.712-.518L61,23.136l1.693,3.2a1,1,0,0,0,.712.518l3.563.623Z" stroke="#000001" stroke-width="0.5"/>
        <path id="Path_73" data-name="Path 73" d="M55.951,15.049a1,1,0,0,0-.779-.676l-3.585-.626-1.7-3.216a1.042,1.042,0,0,0-1.768,0l-1.7,3.216-3.584.625a1,1,0,0,0-.547,1.681l2.532,2.614-.512,3.6a1,1,0,0,0,1.43,1.039L49,21.709l3.27,1.6A1,1,0,0,0,53.7,22.273l-.512-3.6,2.532-2.614A1,1,0,0,0,55.951,15.049Zm-4.542,2.58a1,1,0,0,0-.271.836l.315,2.22L49.438,19.7a1,1,0,0,0-.879,0l-2.012.986.315-2.22a1,1,0,0,0-.271-.836l-1.56-1.61,2.207-.385a1,1,0,0,0,.712-.518L49,13.136l1.05,1.981a1,1,0,0,0,.712.517l2.208.385Z" stroke="#000001" stroke-width="0.5"/>
      </g>
    </g>
  </g>
</svg>
