<svg xmlns="http://www.w3.org/2000/svg" xmlns:xlink="http://www.w3.org/1999/xlink" width="80" height="80" viewBox="0 0 80 80">
  <defs>
    <clipPath id="clip-Support_team">
      <rect width="80" height="80"/>
    </clipPath>
  </defs>
  <g id="Support_team" data-name="Support team" clip-path="url(#clip-Support_team)">
    <path id="Path_66" data-name="Path 66" d="M55,54.717a10.15,10.15,0,1,0-10.15-10.15A10.157,10.157,0,0,0,55,54.717ZM55,37.8a6.65,6.65,0,1,1-6.65,6.65A6.647,6.647,0,0,1,55,37.8Zm20.767,9.1A10.151,10.151,0,1,0,65.5,36.75,10.157,10.157,0,0,0,75.767,46.9Zm0-16.917a6.647,6.647,0,0,1,6.65,6.65,6.709,6.709,0,1,1-6.65-6.65ZM34.233,46.9a10.15,10.15,0,1,0-10.15-10.15A10.157,10.157,0,0,0,34.233,46.9Zm0-16.917a6.647,6.647,0,0,1,6.65,6.65,6.747,6.747,0,0,1-6.65,6.767,6.647,6.647,0,0,1-6.65-6.65A6.825,6.825,0,0,1,34.233,29.983ZM90,58.8V71.75a1.794,1.794,0,0,1-1.75,1.75H71.567V70H86.5V58.8a5.228,5.228,0,0,0-5.25-5.25H70.167a5.343,5.343,0,0,0-4.783,3.033A23.521,23.521,0,0,0,62,55.65a8.632,8.632,0,0,1,8.05-5.483h11.2A8.64,8.64,0,0,1,90,58.8Zm-66.5,0V70H38.433v3.5H21.75A1.794,1.794,0,0,1,20,71.75V58.8a8.738,8.738,0,0,1,8.75-8.75H39.833a8.566,8.566,0,0,1,8.05,5.483,8.8,8.8,0,0,0-3.383,1.05,5.214,5.214,0,0,0-4.783-3.033h-11.2A5.344,5.344,0,0,0,23.5,58.8Zm37.1-.933H49.4a8.738,8.738,0,0,0-8.75,8.75v12.95a1.794,1.794,0,0,0,1.75,1.75H67.483a1.794,1.794,0,0,0,1.75-1.75V66.617A8.714,8.714,0,0,0,60.6,57.867Zm5.133,19.95H44.267v-11.2a5.228,5.228,0,0,1,5.25-5.25h11.2a5.228,5.228,0,0,1,5.25,5.25v11.2Z" transform="translate(-15 -13.6)"/>
  </g>
</svg>
