<svg xmlns="http://www.w3.org/2000/svg" xmlns:xlink="http://www.w3.org/1999/xlink" width="80" height="80" viewBox="0 0 80 80">
  <defs>
    <clipPath id="clip-Tier_4_Datacenter">
      <rect width="80" height="80"/>
    </clipPath>
  </defs>
  <g id="Tier_4_Datacenter" data-name="Tier 4 Datacenter" clip-path="url(#clip-Tier_4_Datacenter)">
    <g id="Group_38" data-name="Group 38" transform="translate(9 9)">
      <rect id="Rectangle_2" data-name="Rectangle 2" width="1.935" height="1.935" transform="translate(4.871 39.71)"/>
      <rect id="Rectangle_3" data-name="Rectangle 3" width="1.935" height="1.935" transform="translate(8.742 39.71)"/>
      <rect id="Rectangle_4" data-name="Rectangle 4" width="1.935" height="1.935" transform="translate(12.613 47.452)"/>
      <rect id="Rectangle_5" data-name="Rectangle 5" width="1.935" height="1.935" transform="translate(8.742 47.452)"/>
      <rect id="Rectangle_6" data-name="Rectangle 6" width="1.935" height="1.935" transform="translate(8.742 55.194)"/>
      <rect id="Rectangle_7" data-name="Rectangle 7" width="1.935" height="1.935" transform="translate(12.613 55.194)"/>
      <rect id="Rectangle_8" data-name="Rectangle 8" width="1.935" height="1.935" transform="translate(4.871 55.194)"/>
      <rect id="Rectangle_9" data-name="Rectangle 9" width="1.935" height="1.935" transform="translate(26.161 39.71)"/>
      <rect id="Rectangle_10" data-name="Rectangle 10" width="1.935" height="1.935" transform="translate(30.032 39.71)"/>
      <rect id="Rectangle_11" data-name="Rectangle 11" width="1.935" height="1.935" transform="translate(33.903 47.452)"/>
      <rect id="Rectangle_12" data-name="Rectangle 12" width="1.935" height="1.935" transform="translate(30.032 47.452)"/>
      <rect id="Rectangle_13" data-name="Rectangle 13" width="1.935" height="1.935" transform="translate(30.032 55.194)"/>
      <rect id="Rectangle_14" data-name="Rectangle 14" width="1.935" height="1.935" transform="translate(33.903 55.194)"/>
      <rect id="Rectangle_15" data-name="Rectangle 15" width="1.935" height="1.935" transform="translate(26.161 55.194)"/>
      <path id="Path_74" data-name="Path 74" d="M58.1,35.839H53.258V30.032H31.968V26.161H47.452a7.742,7.742,0,1,0-1.294-15.375A12.561,12.561,0,0,0,23.714,6.22a7.642,7.642,0,0,0-2.391-.381,7.791,7.791,0,0,0-7.179,4.849,7.742,7.742,0,0,0,.4,15.473H30.032v3.871H8.742v5.806H3.9a2.907,2.907,0,0,0-2.9,2.9V58.1A2.907,2.907,0,0,0,3.9,61H15.516a2.907,2.907,0,0,0,2.9-2.9V38.742a2.907,2.907,0,0,0-2.9-2.9H10.677V31.968H30.032v3.871H25.194a2.907,2.907,0,0,0-2.9,2.9V58.1a2.907,2.907,0,0,0,2.9,2.9H36.806a2.907,2.907,0,0,0,2.9-2.9V38.742a2.907,2.907,0,0,0-2.9-2.9H31.968V31.968H51.323v3.871H46.484a2.907,2.907,0,0,0-2.9,2.9V58.1a2.907,2.907,0,0,0,2.9,2.9H58.1A2.907,2.907,0,0,0,61,58.1V38.742A2.907,2.907,0,0,0,58.1,35.839ZM8.742,18.419a5.812,5.812,0,0,1,5.806-5.806l.995.044.214-.724a5.838,5.838,0,0,1,5.565-4.158,5.765,5.765,0,0,1,2.366.508l.765.343.448-.709A10.629,10.629,0,0,1,44.433,12.1l.159,1.137,1.094-.349a5.807,5.807,0,1,1,1.766,11.338h-32.9A5.812,5.812,0,0,1,8.742,18.419Zm-5.806,27.1H16.484v5.806H2.935ZM15.516,59.065H3.9a.968.968,0,0,1-.968-.968V53.258H16.484V58.1A.968.968,0,0,1,15.516,59.065Zm.968-20.323v4.839H2.935V38.742a.968.968,0,0,1,.968-.968H15.516A.968.968,0,0,1,16.484,38.742Zm7.742,6.774H37.774v5.806H24.226ZM36.806,59.065H25.194a.968.968,0,0,1-.968-.968V53.258H37.774V58.1A.968.968,0,0,1,36.806,59.065Zm.968-20.323v4.839H24.226V38.742a.968.968,0,0,1,.968-.968H36.806A.968.968,0,0,1,37.774,38.742Zm8.71-.968H58.1a.968.968,0,0,1,.968.968v4.839H45.516V38.742A.968.968,0,0,1,46.484,37.774Zm12.581,7.742v5.806H45.516V45.516ZM58.1,59.065H46.484a.968.968,0,0,1-.968-.968V53.258H59.065V58.1A.968.968,0,0,1,58.1,59.065Z"/>
      <rect id="Rectangle_16" data-name="Rectangle 16" width="1.935" height="1.935" transform="translate(47.452 39.71)"/>
      <rect id="Rectangle_17" data-name="Rectangle 17" width="1.935" height="1.935" transform="translate(51.323 39.71)"/>
      <rect id="Rectangle_18" data-name="Rectangle 18" width="1.935" height="1.935" transform="translate(55.194 47.452)"/>
      <rect id="Rectangle_19" data-name="Rectangle 19" width="1.935" height="1.935" transform="translate(51.323 47.452)"/>
      <rect id="Rectangle_20" data-name="Rectangle 20" width="1.935" height="1.935" transform="translate(51.323 55.194)"/>
      <rect id="Rectangle_21" data-name="Rectangle 21" width="1.935" height="1.935" transform="translate(55.194 55.194)"/>
      <rect id="Rectangle_22" data-name="Rectangle 22" width="1.935" height="1.935" transform="translate(47.452 55.194)"/>
      <path id="Path_75" data-name="Path 75" d="M28.636,7.551,30,8.919a6.783,6.783,0,0,1,9.581,0l1.368-1.368A8.72,8.72,0,0,0,28.636,7.551Z" transform="translate(-0.891 -0.129)"/>
      <path id="Path_76" data-name="Path 76" d="M52.871,18.871A3.875,3.875,0,0,0,49,15v1.935a1.935,1.935,0,0,1,0,3.871v1.935A3.875,3.875,0,0,0,52.871,18.871Z" transform="translate(-1.548 -0.452)"/>
    </g>
  </g>
</svg>
